<?xml version="1.0" standalone="no"?>
<!DOCTYPE svg PUBLIC "-//W3C//DTD SVG 20010904//EN"
 "http://www.w3.org/TR/2001/REC-SVG-20010904/DTD/svg10.dtd">
<svg version="1.0" xmlns="http://www.w3.org/2000/svg"
 width="300.000000pt" height="240.000000pt" viewBox="0 0 300.000000 240.000000"
 preserveAspectRatio="xMidYMid meet">
<metadata>
Created by potrace 1.10, written by Peter Selinger 2001-2011
</metadata>
<g transform="translate(0.000000,240.000000) scale(0.100000,-0.100000)"
fill="#828282" stroke="none">
<path d="M1385 2150 c-84 -15 -94 -18 -178 -59 -170 -82 -295 -235 -355 -435
-8 -26 -8 -273 0 -302 19 -65 76 -182 113 -232 106 -140 193 -195 415 -262 39
-11 226 -3 270 13 8 2 38 13 65 22 52 18 93 40 158 83 l38 26 -250 250 -251
251 0 98 0 97 -45 0 -45 0 0 -110 0 -110 230 -232 c257 -260 248 -243 140
-275 -77 -23 -78 -24 -145 -33 -33 -5 -73 -7 -90 -4 -16 3 -41 7 -55 9 -180
28 -339 144 -420 310 -57 115 -74 245 -49 367 19 92 85 213 156 284 74 74 126
107 226 141 60 22 89 26 176 25 153 -2 282 -47 366 -129 l36 -35 29 27 c19 18
27 33 22 41 -26 47 -233 157 -318 169 -78 11 -190 14 -239 5z m230 -31 c70
-13 206 -76 255 -117 47 -41 30 -53 -23 -15 -46 33 -169 93 -190 93 -7 0 -18
5 -24 11 -17 17 -253 12 -296 -6 -19 -8 -37 -11 -41 -8 -3 4 -6 1 -6 -5 0 -7
-4 -12 -10 -12 -30 0 -147 -70 -199 -119 -34 -32 -61 -61 -61 -65 0 -4 -12
-23 -27 -42 -16 -18 -27 -36 -25 -39 1 -3 -9 -28 -23 -55 -31 -62 -55 -158
-55 -227 0 -164 87 -357 206 -453 24 -19 54 -43 66 -53 34 -28 71 -45 146 -70
99 -32 269 -31 372 2 41 13 85 35 97 47 22 22 23 26 9 51 -8 16 -100 113 -205
217 -104 105 -188 193 -185 198 8 13 49 -20 146 -119 51 -52 141 -143 201
-201 59 -58 107 -113 107 -122 0 -42 -197 -120 -324 -128 -183 -11 -374 69
-500 210 -111 125 -160 266 -153 442 5 127 6 133 43 218 38 85 64 120 153 207
82 80 180 134 281 157 70 16 189 17 265 3z m-235 -524 c0 -42 -3 -55 -15 -55
-12 0 -15 13 -15 55 0 42 3 55 15 55 12 0 15 -13 15 -55z m8 -103 c2 -18 -1
-32 -7 -32 -6 0 -11 12 -11 26 0 19 -4 25 -15 20 -15 -6 -20 5 -8 18 16 16 38
-1 41 -32z"/>
<path d="M1180 1446 l0 -384 84 87 c46 47 102 107 124 132 l42 46 -28 26 -27
26 -25 -22 c-14 -12 -39 -40 -55 -62 l-30 -40 30 19 c17 11 35 26 40 33 6 7
21 15 34 18 l24 4 -24 -27 c-51 -59 -144 -152 -151 -152 -4 0 -8 65 -8 145 0
127 2 145 18 154 16 8 17 3 14 -62 -2 -52 1 -78 12 -92 13 -18 15 5 13 218
l-2 237 234 0 c188 0 233 3 223 13 -9 9 -72 13 -226 15 l-214 3 -21 -27 c-18
-23 -21 -40 -21 -120 0 -77 -3 -94 -15 -94 -13 0 -15 20 -15 124 0 69 4 127 9
130 5 3 134 6 287 7 341 1 334 1 334 -9 0 -4 -31 -39 -68 -77 -38 -39 -77 -83
-86 -98 -17 -25 -17 -29 -2 -52 12 -18 13 -25 4 -25 -8 0 -6 -5 5 -11 9 -5 17
-18 17 -27 1 -15 2 -15 11 1 10 17 12 16 35 -8 28 -30 29 -35 9 -35 -8 0 -15
7 -15 15 0 18 -16 20 -24 3 -4 -9 -9 -7 -18 7 -7 11 -24 31 -38 45 -58 58 -58
54 9 125 57 61 75 91 51 83 -6 -2 -44 -36 -84 -76 l-73 -73 265 -264 c146
-146 266 -265 267 -265 2 0 16 12 33 28 l30 27 -242 236 -241 237 121 121 121
121 -374 0 -373 0 0 -384z m70 74 c0 -5 -4 -10 -10 -10 -5 0 -10 -11 -10 -25
0 -14 -4 -25 -10 -25 -11 0 -14 53 -3 63 10 11 33 8 33 -3z m686 -219 c178
-176 188 -187 175 -195 -5 -4 -88 72 -183 167 -104 104 -166 174 -157 175 9 0
84 -66 165 -147z"/>
<path d="M852 670 c-67 -63 -8 -175 71 -134 36 19 26 41 -18 36 -30 -4 -35 -1
-41 23 -9 36 18 65 45 48 21 -13 31 -8 31 18 0 33 -55 39 -88 9z"/>
<path d="M1002 670 c-46 -43 -36 -120 18 -138 22 -8 34 -6 59 9 17 10 32 27
32 36 1 10 3 28 4 41 3 25 -45 72 -74 72 -9 0 -27 -9 -39 -20z m68 -40 c15
-28 -4 -62 -33 -58 -39 5 -31 78 9 78 7 0 18 -9 24 -20z"/>
<path d="M1149 683 c-3 -19 3 -149 7 -155 3 -4 11 -5 19 -2 9 4 15 25 17 62 3
49 6 57 23 57 17 0 20 -8 23 -57 2 -36 8 -58 17 -62 24 -9 32 17 27 82 -4 55
-8 65 -29 75 -19 8 -29 8 -46 -2 -15 -10 -22 -11 -25 -2 -4 12 -31 15 -33 4z"/>
<path d="M1318 678 c-3 -7 6 -43 20 -80 36 -99 57 -93 99 31 10 29 11 47 5 53
-16 16 -30 1 -42 -42 -14 -52 -27 -51 -37 2 -9 42 -35 63 -45 36z"/>
<path d="M1503 668 c-44 -48 -37 -105 16 -133 27 -14 35 -14 66 -1 19 8 35 19
35 25 0 17 -19 22 -40 11 -25 -13 -60 -4 -60 16 0 10 13 14 51 14 51 0 51 0
44 28 -15 60 -74 81 -112 40z m75 -35 c2 -9 -8 -13 -33 -13 -33 0 -36 2 -25
15 15 18 51 16 58 -2z"/>
<path d="M1657 683 c-4 -3 -7 -40 -7 -80 0 -66 2 -74 18 -71 13 2 18 15 20 51
3 39 7 50 27 59 13 6 26 17 29 25 7 18 -20 28 -38 14 -10 -8 -16 -9 -21 -1 -7
12 -19 13 -28 3z"/>
<path d="M1781 664 c-24 -31 -18 -45 32 -71 20 -10 26 -18 19 -25 -7 -7 -17
-6 -30 1 -27 14 -29 14 -36 -4 -9 -24 47 -48 78 -34 47 22 36 83 -18 91 -32 5
-19 23 14 21 53 -5 46 35 -7 43 -25 4 -35 -1 -52 -22z"/>
<path d="M1939 677 c-48 -37 -49 -111 -1 -139 26 -15 31 -16 50 -2 13 9 23 11
27 4 3 -5 13 -10 21 -10 11 0 14 16 14 74 0 76 -10 97 -35 76 -9 -7 -15 -8
-20 0 -8 13 -36 12 -56 -3z m61 -42 c7 -9 10 -25 6 -41 -5 -20 -12 -25 -34
-22 -19 2 -28 9 -30 26 -6 43 33 68 58 37z"/>
<path d="M2090 612 c0 -83 3 -94 26 -85 9 3 14 21 14 54 0 44 3 50 31 65 29
14 30 17 16 32 -14 13 -18 13 -33 1 -13 -11 -18 -11 -21 -1 -3 6 -11 12 -19
12 -11 0 -14 -17 -14 -78z"/>
</g>
</svg>
