<?xml version="1.0" encoding="utf-8"?>
<!-- Generator: Adobe Illustrator 25.4.1, SVG Export Plug-In . SVG Version: 6.00 Build 0)  -->
<svg version="1.1" id="Layer_1" xmlns="http://www.w3.org/2000/svg" xmlns:xlink="http://www.w3.org/1999/xlink" x="0px" y="0px"
	 viewBox="0 0 24 24" style="enable-background:new 0 0 24 24;" xml:space="preserve">
<style type="text/css">
	.st0{fill:#ffffff;}
</style>
<path d="M12.8,15.06c0.19-0.49,0.36-0.93,0.53-1.36c0.49-1.3,0.99-2.6,1.47-3.9c0.09-0.24,0.2-0.34,0.47-0.32
	c0.38,0.03,0.76,0.01,1.18,0.01c-0.21,0.58-0.41,1.12-0.62,1.69c0.13,0.02,0.22,0.04,0.32,0.04c0.94,0,1.89,0.01,2.83,0
	c0.93-0.01,1.58-0.62,1.58-1.46c0-0.86-0.63-1.47-1.56-1.48c-1.56-0.01-3.11,0-4.67-0.01c-0.23,0-0.33,0.09-0.41,0.3
	c-0.46,1.24-0.94,2.48-1.42,3.71c-0.03,0.08-0.07,0.16-0.14,0.31c-1.59-1.91-3.16-3.79-4.79-5.75c0.65,0,1.21-0.01,1.76,0.01
	c0.11,0,0.23,0.14,0.32,0.24c0.64,0.76,1.28,1.53,1.91,2.29c0.1,0.12,0.21,0.24,0.35,0.4c0.35-0.91,0.69-1.76,1-2.62
	c0.1-0.27,0.23-0.33,0.5-0.33c1.84,0.01,3.68,0,5.51,0.01c1.46,0,2.6,0.84,2.96,2.14c0.36,1.32-0.2,2.59-1.45,3.34
	c-0.03,0.02-0.06,0.04-0.06,0.04c0.17,0.5,0.4,0.98,0.48,1.48c0.26,1.7-1.08,3.29-2.79,3.33c-1.71,0.04-3.42,0.02-5.13,0
	c-0.16,0-0.35-0.13-0.46-0.26c-1.94-2.31-3.87-4.64-5.81-6.96C6.6,9.86,6.52,9.78,6.4,9.65c-0.78,2.04-1.54,4.03-2.33,6.1
	c0.46,0,0.85,0.03,1.23-0.02c0.11-0.01,0.22-0.22,0.28-0.36c0.38-0.97,0.74-1.95,1.11-2.93c0.03-0.09,0.08-0.18,0.15-0.32
	c0.34,0.4,0.65,0.77,0.94,1.14c0.05,0.07,0.03,0.22,0,0.31c-0.41,1.1-0.82,2.2-1.25,3.29C6.48,17,6.32,17.16,6.21,17.16
	C4.84,17.18,3.46,17.18,2,17.18c1.32-3.46,2.61-6.87,3.94-10.35C8.24,9.58,10.49,12.29,12.8,15.06z M14.1,15.69
	c0.08,0.04,0.1,0.07,0.12,0.07c1.26,0,2.52,0.04,3.78,0c0.85-0.03,1.46-0.74,1.45-1.57c-0.01-0.82-0.62-1.49-1.46-1.52
	c-0.84-0.03-1.68-0.01-2.52,0c-0.09,0-0.23,0.07-0.26,0.15C14.84,13.75,14.48,14.71,14.1,15.69z"/>
</svg>
